<?xml version="1.0" standalone="no"?>
<!DOCTYPE svg PUBLIC "-//W3C//DTD SVG 20010904//EN"
 "http://www.w3.org/TR/2001/REC-SVG-20010904/DTD/svg10.dtd">
<svg version="1.0" xmlns="http://www.w3.org/2000/svg"
 width="700.000000pt" height="700.000000pt" viewBox="0 0 700.000000 700.000000"
 preserveAspectRatio="xMidYMid meet">
<metadata>
Created by potrace 1.11, written by Peter Selinger 2001-2013
</metadata>
<g transform="translate(0.000000,700.000000) scale(0.100000,-0.100000)"
fill="#000000" stroke="none">
<path d="M3298 6996 c-1 -2 -41 -6 -88 -10 -100 -7 -225 -22 -295 -36 -27 -5
-63 -12 -80 -15 -68 -11 -95 -17 -190 -41 -663 -167 -1253 -520 -1724 -1030
-94 -103 -101 -111 -183 -216 -223 -285 -410 -626 -531 -963 -78 -218 -148
-503 -172 -701 -4 -33 -9 -68 -11 -79 -19 -100 -26 -567 -10 -715 8 -80 24
-209 32 -250 2 -14 7 -41 10 -60 3 -19 7 -42 9 -50 2 -8 7 -30 10 -48 3 -18
21 -92 39 -165 269 -1041 1020 -1913 2013 -2335 121 -52 272 -105 438 -155
111 -33 354 -83 458 -93 34 -3 65 -8 68 -10 15 -9 234 -19 414 -19 183 0 335
8 425 21 144 21 295 48 345 61 33 8 67 16 75 18 109 22 388 117 550 188 459
199 905 524 1223 892 33 39 63 72 67 75 17 13 181 236 239 325 317 488 510
1046 559 1620 14 162 5 622 -13 710 -2 11 -7 39 -9 63 -10 79 -37 226 -61 327
-118 500 -351 975 -682 1390 -87 110 -361 391 -462 474 -29 25 -59 50 -65 56
-19 18 -188 140 -267 193 -246 164 -562 317 -837 406 -108 34 -271 80 -327 91
-127 25 -242 45 -310 54 -44 6 -100 13 -125 16 -47 7 -526 16 -532 11z m462
-240 c58 -4 107 -9 110 -11 3 -2 34 -6 70 -10 52 -5 217 -35 334 -60 102 -22
380 -115 501 -167 368 -159 699 -378 980 -647 223 -215 387 -419 543 -678 262
-434 419 -926 459 -1438 13 -167 6 -507 -12 -615 -2 -14 -7 -45 -10 -70 -77
-608 -344 -1198 -765 -1695 -134 -157 -384 -386 -566 -517 -295 -211 -657
-387 -1004 -486 -214 -61 -390 -94 -645 -118 -96 -9 -389 -10 -505 0 -94 7
-253 27 -315 40 -11 2 -40 7 -65 11 -25 4 -105 22 -178 41 -754 195 -1400 638
-1851 1269 -294 412 -480 866 -567 1380 -44 266 -51 694 -14 925 5 30 12 78
15 105 9 72 51 265 81 370 73 256 164 476 292 705 189 339 416 616 736 899 64
56 280 216 348 257 34 21 65 40 68 43 6 7 26 18 171 96 210 114 563 249 757
290 9 2 49 10 87 18 135 29 309 54 435 63 52 3 96 7 97 8 6 4 324 -2 413 -8z"/>
<path d="M3299 5826 c-2 -2 -31 -6 -64 -10 -211 -22 -544 -110 -594 -157 -75
-70 -28 -199 74 -199 13 0 74 16 137 35 238 75 395 99 643 99 189 0 259 -6
441 -40 50 -9 102 -14 116 -11 36 9 77 54 84 92 8 42 -19 101 -55 119 -23 12
-158 42 -233 52 -15 2 -43 7 -60 10 -36 7 -483 16 -489 10z"/>
<path d="M2043 5231 c-59 -37 -58 -19 -58 -604 -1 -296 1 -552 3 -569 3 -22
46 -72 174 -201 l169 -172 -6 -115 c-3 -63 -7 -149 -10 -190 -2 -41 -6 -133
-10 -205 -3 -71 -8 -161 -10 -200 -2 -38 -7 -128 -10 -200 -4 -71 -8 -161 -10
-200 -2 -38 -6 -126 -10 -195 -6 -128 -10 -221 -21 -415 -21 -382 -8 -450 104
-564 167 -170 459 -146 595 49 61 88 77 152 72 305 -4 120 -6 169 -20 415 -2
47 -7 141 -10 210 -3 69 -8 157 -10 195 -3 39 -7 129 -10 200 -3 72 -8 162
-10 200 -2 39 -7 124 -10 190 -3 66 -7 158 -10 205 -3 47 -7 137 -10 201 l-6
116 161 160 c92 92 166 175 174 194 11 28 13 135 11 574 -1 297 -2 545 -3 552
-1 6 -13 25 -27 41 -48 57 -140 50 -182 -15 -17 -25 -18 -68 -19 -544 l-1
-518 -171 -172 c-105 -105 -173 -180 -173 -193 -3 -41 -1 -122 5 -256 4 -74 9
-171 11 -215 10 -211 16 -326 20 -395 2 -41 7 -136 10 -210 3 -74 8 -160 10
-190 2 -30 6 -116 10 -190 3 -74 7 -169 10 -210 24 -445 24 -460 -8 -508 -62
-95 -201 -96 -264 -1 -29 44 -31 74 -20 289 5 80 10 181 12 225 7 150 17 340
20 400 2 33 7 123 10 200 3 77 8 160 10 185 2 25 7 115 10 200 4 85 8 175 10
200 2 25 7 115 10 200 4 85 8 177 10 205 2 27 -2 63 -9 80 -7 17 -86 103 -176
192 l-163 163 -1 517 c-1 386 -5 524 -14 540 -31 56 -106 77 -159 44z"/>
<path d="M2415 5243 c-28 -7 -62 -41 -73 -72 -5 -14 -8 -246 -8 -516 1 -450 2
-492 19 -516 9 -14 28 -32 42 -39 52 -28 119 -11 152 39 16 24 18 68 19 518 0
371 -3 500 -12 522 -21 49 -83 78 -139 64z"/>
<path d="M2765 5243 c-32 -8 -65 -44 -74 -82 -14 -57 -8 -992 6 -1017 41 -73
153 -75 200 -5 16 24 18 67 19 512 0 326 -3 498 -10 520 -18 56 -79 87 -141
72z"/>
<path d="M4285 5245 c-148 -43 -223 -84 -297 -163 -81 -87 -107 -142 -177
-385 -57 -194 -74 -300 -75 -442 0 -83 9 -202 18 -250 30 -154 122 -300 242
-380 67 -45 73 -52 69 -74 -1 -9 -6 -101 -10 -206 -4 -104 -8 -206 -10 -225
-2 -19 -6 -111 -10 -205 -4 -93 -8 -204 -10 -245 -2 -41 -6 -142 -10 -225 -3
-82 -8 -177 -10 -210 -9 -131 -19 -417 -19 -540 0 -123 1 -133 28 -184 91
-175 279 -261 462 -211 117 32 208 105 260 208 28 55 29 62 28 202 0 125 -5
266 -19 535 -1 33 -6 130 -9 215 -4 85 -9 193 -11 240 -2 47 -7 144 -10 215
-3 72 -8 171 -10 220 -2 50 -7 160 -10 245 -4 85 -9 163 -11 172 -4 12 17 32
69 71 153 113 233 259 253 462 9 91 9 233 0 314 -15 134 -104 451 -158 561
-84 171 -277 289 -473 288 -44 0 -84 -2 -90 -3z m197 -251 c72 -24 147 -101
175 -180 42 -117 91 -293 111 -397 13 -63 13 -277 1 -352 -21 -131 -97 -232
-219 -293 -101 -50 -103 -57 -96 -268 4 -97 9 -205 11 -242 2 -37 7 -130 10
-207 3 -77 8 -174 10 -215 2 -41 6 -142 10 -225 3 -82 8 -190 10 -240 3 -49 7
-144 10 -210 2 -66 7 -172 10 -235 14 -278 14 -287 -6 -328 -27 -53 -70 -77
-145 -77 -108 0 -164 61 -159 175 1 30 6 132 10 225 3 94 8 197 10 230 2 33 7
130 10 215 6 157 10 242 20 450 3 63 7 174 11 245 3 72 7 157 9 190 2 33 6
142 10 242 9 218 6 225 -95 275 -74 37 -148 106 -180 168 -47 93 -64 331 -34
495 20 107 101 381 127 425 46 79 101 121 188 144 64 16 110 14 181 -10z"/>
<path d="M5164 5039 c-51 -15 -79 -53 -79 -108 0 -43 6 -56 71 -142 245 -326
390 -685 431 -1064 15 -138 8 -416 -12 -540 -21 -119 -30 -161 -51 -239 -89
-319 -260 -629 -471 -856 -78 -84 -94 -107 -100 -145 -8 -52 12 -91 61 -114
56 -26 96 -18 143 29 361 357 604 866 661 1380 9 85 9 446 -1 529 -29 256
-122 566 -240 796 -88 174 -302 471 -339 472 -7 0 -20 3 -28 6 -8 3 -29 1 -46
-4z"/>
<path d="M1644 4898 c-36 -25 -124 -156 -195 -289 -152 -285 -241 -582 -274
-909 -5 -53 -6 -342 -1 -385 2 -16 7 -55 10 -85 4 -30 9 -68 11 -85 14 -118
80 -362 135 -500 76 -191 230 -460 325 -569 14 -16 25 -32 25 -35 0 -4 44 -54
99 -111 l99 -105 51 0 c43 0 55 4 80 30 59 60 46 117 -46 217 -303 327 -491
727 -547 1168 -13 106 -14 422 -1 510 54 375 158 643 371 964 42 63 47 114 17
155 -41 54 -107 66 -159 29z"/>
<path d="M3225 1410 c-47 -10 -71 -27 -87 -61 -29 -58 -2 -130 55 -154 40 -16
157 -26 312 -26 254 1 324 16 359 81 16 30 17 41 7 77 -13 48 -53 82 -97 83
-16 0 -117 -1 -224 -4 -107 -2 -218 0 -245 3 -28 4 -64 4 -80 1z"/>
</g>
</svg>
